HIERARCHY
ROOT hips
{
  OFFSET 0 10.6860622 2.3727825e-15
  CHANNELS 6 Xposition Yposition Zposition Yrotation Xrotation Zrotation
  JOINT leftUpperLeg
  {
    OFFSET 0.6642549969 -0.9402397400000004 0
    CHANNELS 3 Yrotation Xrotation Zrotation
    JOINT leftLowerLeg
    {
      OFFSET 0 -3.997221335632195 0
      CHANNELS 3 Yrotation Xrotation Zrotation
      JOINT leftFoot
      {
        OFFSET -0.13777839790000004 -4.6145792000000005 -0.22186036399999998
        CHANNELS 3 Yrotation Xrotation Zrotation
        JOINT leftToes
        {
          OFFSET -0.03777410834999995 -0.9130806927000008 0.85230013
          CHANNELS 3 Yrotation Xrotation Zrotation
          End Site
          {
            OFFSET -0.03777410834999995 -0.9130806927000008 0.85230013
          }
        }
      }
    }
  }
  JOINT rightUpperLeg
  {
    OFFSET -0.6642778626 -0.9402397400000004 0
    CHANNELS 3 Yrotation Xrotation Zrotation
    JOINT rightLowerLeg
    {
      OFFSET 0 -3.997221452859387 0
      CHANNELS 3 Yrotation Xrotation Zrotation
      JOINT rightFoot
      {
        OFFSET 0.1377926176 -4.6145792000000005 -0.22185782299999995
        CHANNELS 3 Yrotation Xrotation Zrotation
        JOINT rightToes
        {
          OFFSET 0.037780746850000047 -0.9130806927000008 0.85230167
          CHANNELS 3 Yrotation Xrotation Zrotation
          End Site
          {
            OFFSET 0.037780746850000047 -0.9130806927000008 0.85230167
          }
        }
      }
    }
  }
  JOINT spine
  {
    OFFSET 0 0.13988381660000015 0
    CHANNELS 3 Yrotation Xrotation Zrotation
    JOINT chest
    {
      OFFSET 0 0.6191039003973773 0
      CHANNELS 3 Yrotation Xrotation Zrotation
      JOINT upperChest
      {
        OFFSET 0 0.9855186130586943 0
        CHANNELS 3 Yrotation Xrotation Zrotation
        JOINT leftShoulder
        {
          OFFSET 0.1807663869 1.5087829790000005 0
          CHANNELS 3 Yrotation Xrotation Zrotation
          JOINT leftUpperArm
          {
            OFFSET 0.5985063006419806 0 0
            CHANNELS 3 Yrotation Xrotation Zrotation
            JOINT leftLowerArm
            {
              OFFSET 2.2993332369501065 0 0
              CHANNELS 3 Yrotation Xrotation Zrotation
              JOINT leftHand
              {
                OFFSET 2.395047042602395 0 0
                CHANNELS 3 Yrotation Xrotation Zrotation
                JOINT leftIndexProximal
                {
                  OFFSET 0.5766295810000004 0.04556643899499946 0.17265095988184
                  CHANNELS 3 Yrotation Xrotation Zrotation
                  JOINT leftIndexIntermediate
                  {
                    OFFSET 0.2957229000000008 -0.019352197700001517 -0.007932640616999987
                    CHANNELS 3 Yrotation Xrotation Zrotation
                    JOINT leftIndexDistal
                    {
                      OFFSET 0.19008243099999922 -0.012484908149998475 -0.002786250786000012
                      CHANNELS 3 Yrotation Xrotation Zrotation
                      End Site
                      {
                        OFFSET 0.19008243099999922 -0.012484908149998475 -0.002786250786000012
                      }
                    }
                  }
                }
                JOINT leftMiddleProximal
                {
                  OFFSET 0.5834975091000001 0.0524350405149987 0.02204081888183999
                  CHANNELS 3 Yrotation Xrotation Zrotation
                  JOINT leftMiddleIntermediate
                  {
                    OFFSET 0.33880573540000003 -0.019871473270000717 -0.00000971183179999946
                    CHANNELS 3 Yrotation Xrotation Zrotation
                    JOINT leftMiddleDistal
                    {
                      OFFSET 0.20676022730000088 -0.012221336379999448 0.0001471936708000235
                      CHANNELS 3 Yrotation Xrotation Zrotation
                      End Site
                      {
                        OFFSET 0.20676022730000088 -0.012221336379999448 0.0001471936708000235
                      }
                    }
                  }
                }
                JOINT leftLittleProximal
                {
                  OFFSET 0.5344154683999995 -0.012880921405001189 -0.24414037221816004
                  CHANNELS 3 Yrotation Xrotation Zrotation
                  JOINT leftLittleIntermediate
                  {
                    OFFSET 0.21758961730000093 -0.011650919939999227 0.011893592810000034
                    CHANNELS 3 Yrotation Xrotation Zrotation
                    JOINT leftLittleDistal
                    {
                      OFFSET 0.1475273964999999 -0.008152365682999818 0.006001092492999946
                      CHANNELS 3 Yrotation Xrotation Zrotation
                      End Site
                      {
                        OFFSET 0.1475273964999999 -0.008152365682999818 0.006001092492999946
                      }
                    }
                  }
                }
                JOINT leftRingProximal
                {
                  OFFSET 0.5799399463000003 0.026911854694997794 -0.12150566991816003
                  CHANNELS 3 Yrotation Xrotation Zrotation
                  JOINT leftRingIntermediate
                  {
                    OFFSET 0.26167887460000006 -0.013480186499999602 0.010996293000000053
                    CHANNELS 3 Yrotation Xrotation Zrotation
                    JOINT leftRingDistal
                    {
                      OFFSET 0.17667108799999987 -0.008990287899999228 0.0055541023999999065
                      CHANNELS 3 Yrotation Xrotation Zrotation
                      End Site
                      {
                        OFFSET 0.17667108799999987 -0.008990287899999228 0.0055541023999999065
                      }
                    }
                  }
                }
                JOINT leftThumbProximal
                {
                  OFFSET 0.11018806699999972 -0.09448718900500053 0.17047963138184
                  CHANNELS 3 Yrotation Xrotation Zrotation
                  JOINT leftThumbIntermediate
                  {
                    OFFSET 0.31062601459999983 -0.08126270900000132 0.15443142000000007
                    CHANNELS 3 Yrotation Xrotation Zrotation
                    JOINT leftThumbDistal
                    {
                      OFFSET 0.21627175790000086 -0.08833193599999878 0.018771167799999988
                      CHANNELS 3 Yrotation Xrotation Zrotation
                      End Site
                      {
                        OFFSET 0.21627175790000086 -0.08833193599999878 0.018771167799999988
                      }
                    }
                  }
                }
              }
            }
          }
        }
        JOINT neck
        {
          OFFSET 0 1.5463305265074576 0
          CHANNELS 3 Yrotation Xrotation Zrotation
          JOINT head
          {
            OFFSET 0 0.8456443600000344 0
            CHANNELS 3 Yrotation Xrotation Zrotation
            JOINT leftEye
            {
              OFFSET 0.30408573140000006 0.5104519199999995 0.1276382305
              CHANNELS 3 Yrotation Xrotation Zrotation
              End Site
              {
                OFFSET 0.30408573140000006 0.5104519199999995 0.1276382305
              }
            }
            JOINT rightEye
            {
              OFFSET -0.30409491089999996 0.5104519199999995 0.1276379445
              CHANNELS 3 Yrotation Xrotation Zrotation
              End Site
              {
                OFFSET -0.30409491089999996 0.5104519199999995 0.1276379445
              }
            }
            JOINT jaw
            {
              OFFSET -3.155239131000001e-7 -0.11984121820000082 0.60178107
              CHANNELS 3 Yrotation Xrotation Zrotation
              End Site
              {
                OFFSET -3.155239131000001e-7 -0.11984121820000082 0.60178107
              }
            }
          }
        }
        JOINT rightShoulder
        {
          OFFSET -0.1807303465 1.5087829790000005 0
          CHANNELS 3 Yrotation Xrotation Zrotation
          JOINT rightUpperArm
          {
            OFFSET -0.5985063796536958 0 0
            CHANNELS 3 Yrotation Xrotation Zrotation
            JOINT rightLowerArm
            {
              OFFSET -2.2993322059002854 0 0
              CHANNELS 3 Yrotation Xrotation Zrotation
              JOINT rightHand
              {
                OFFSET -2.395045314457259 0 0
                CHANNELS 3 Yrotation Xrotation Zrotation
                JOINT rightIndexProximal
                {
                  OFFSET -0.5764487688300002 0.0441371204405987 0.17361932004999997
                  CHANNELS 3 Yrotation Xrotation Zrotation
                  JOINT rightIndexIntermediate
                  {
                    OFFSET -0.29573011380000047 -0.01934826376999843 -0.007698921482999974
                    CHANNELS 3 Yrotation Xrotation Zrotation
                    JOINT rightIndexDistal
                    {
                      OFFSET -0.19008373999999884 -0.012503266380000655 -0.0026365778999999897
                      CHANNELS 3 Yrotation Xrotation Zrotation
                      End Site
                      {
                        OFFSET -0.19008373999999884 -0.012503266380000655 -0.0026365778999999897
                      }
                    }
                  }
                }
                JOINT rightMiddleProximal
                {
                  OFFSET -0.5834852037300005 0.05211639405060153 0.02307162440000001
                  CHANNELS 3 Yrotation Xrotation Zrotation
                  JOINT rightMiddleIntermediate
                  {
                    OFFSET -0.33880114510000003 -0.019952774050000954 0.0002455003561999819
                    CHANNELS 3 Yrotation Xrotation Zrotation
                    JOINT rightMiddleDistal
                    {
                      OFFSET -0.20675694929999955 -0.012273788999999091 0.00030209124000002766
                      CHANNELS 3 Yrotation Xrotation Zrotation
                      End Site
                      {
                        OFFSET -0.20675694929999955 -0.012273788999999091 0.00030209124000002766
                      }
                    }
                  }
                }
                JOINT rightLittleProximal
                {
                  OFFSET -0.5346811737299992 -0.011214256288399227 -0.24363941305000003
                  CHANNELS 3 Yrotation Xrotation Zrotation
                  JOINT rightLittleIntermediate
                  {
                    OFFSET -0.21757715980000092 -0.011771559690000988 0.01201554387
                    CHANNELS 3 Yrotation Xrotation Zrotation
                    JOINT rightLittleDistal
                    {
                      OFFSET -0.1475201849000004 -0.00822055339600003 0.006082065407000015
                      CHANNELS 3 Yrotation Xrotation Zrotation
                      End Site
                      {
                        OFFSET -0.1475201849000004 -0.00822055339600003 0.006082065407000015
                      }
                    }
                  }
                }
                JOINT rightRingProximal
                {
                  OFFSET -0.5800810755299999 0.027657985680600072 -0.12066365025000003
                  CHANNELS 3 Yrotation Xrotation Zrotation
                  JOINT rightRingIntermediate
                  {
                    OFFSET -0.26166445029999974 -0.013623118409999302 0.011164098990000045
                    CHANNELS 3 Yrotation Xrotation Zrotation
                    JOINT rightRingDistal
                    {
                      OFFSET -0.17666387530000027 -0.009072900100000503 0.005668185599999959
                      CHANNELS 3 Yrotation Xrotation Zrotation
                      End Site
                      {
                        OFFSET -0.17666387530000027 -0.009072900100000503 0.005668185599999959
                      }
                    }
                  }
                }
                JOINT rightThumbProximal
                {
                  OFFSET -0.10997596379000074 -0.09577489355940072 0.16989765924999997
                  CHANNELS 3 Yrotation Xrotation Zrotation
                  JOINT rightThumbIntermediate
                  {
                    OFFSET -0.31036620999999986 -0.08229339117999834 0.15440884469999996
                    CHANNELS 3 Yrotation Xrotation Zrotation
                    JOINT rightThumbDistal
                    {
                      OFFSET -0.21631306399999906 -0.08825326400000111 0.018656797720000014
                      CHANNELS 3 Yrotation Xrotation Zrotation
                      End Site
                      {
                        OFFSET -0.21631306399999906 -0.08825326400000111 0.018656797720000014
                      }
                    }
                  }
                }
              }
            }
          }
        }
      }
    }
  }
}
MOTION
Frames: 6
Frame Time: 0.03333333333333333
1.3921793397735593 -0.10238359973512771 6.804100144688979 180 0 0 -0.5532087731939048 -5.078928795757986 7.107231122657291 1.0385010807026307 14.020788312833693 5.96726524017214 25.258407591496095 -1.436984347198404 -6.477917754271372 0 0 0 -0.0017847278062641328 -16.22683751269947 -5.751626580239648 -2.1690898636366347 25.853641767594354 -8.34440687418737 -1.2345425807249562 -17.140443979559333 -8.325289922308205 0 0 0 -2.4821757727115674 -4.707149902578304 -6.393813031166755 -3.8010887414406547 0.49062616793979713 1.6283538432642797 0 0 0 4.756585903006068 4.210557835145528 -64.97469439181333 1.7035705687978326 -0.9660362223088016 0.16575503766261213 -83.02123856247209 -43.968301888826275 -37.21351974149247 -12.54483396115318 7.750080356915264 -33.460996858833184 0 0 0 0 0 0 0 0 0 0 0 0 0 0 0 0 0 0 0 0 0 0 0 0 0 0 0 0 0 0 0 0 0 0 0 0 0 0 0 0 0 0 0 0 0 -0.0244405404863819 18.279376838931537 0.8139584599148573 0.28986628941331344 2.867001075095821 11.196033931361963 0 0 0 0 0 0 0 0 0 12.193859902184922 -18.26781061087035 56.689763838485746 -6.216763691407632 -4.495112219633585 -7.847421712269238 94.27475783288453 -46.67147072703725 25.936182074089743 29.20381566426153 17.54303355703692 36.421214433463895 0 0 0 0 0 0 0 0 0 0 0 0 0 0 0 0 0 0 0 0 0 0 0 0 0 0 0 0 0 0 0 0 0 0 0 0 0 0 0 0 0 0 0 0 0
1.3781690842832013 -0.10238359973512771 6.804828919169665 180 0 0 -0.5474850636340078 -5.104410329576696 7.026133041592228 1.0385010807026307 14.020788312833693 5.96726524017214 25.09960799259674 -1.5124225247534586 -6.410093361476924 0 0 0 0.006856082324976731 -16.164276449842973 -5.844011456401898 -2.1516894055000844 25.71792003335297 -8.305417911814306 -1.2363271288958149 -17.061639952696446 -8.266719675326309 0 0 0 -2.4732086788108885 -4.719379303347009 -6.366675360479986 -3.797605860312119 0.47943226072312994 1.5641775458443494 0 0 0 4.689214531223064 4.140541836592503 -64.9235967794659 1.7035705687978326 -0.9660362223088016 0.16575503766261213 -83.23064920813589 -44.1299328807409 -36.989562631129424 -12.436767222300482 7.795971445798942 -33.4227586581878 0 0 0 0 0 0 0 0 0 0 0 0 0 0 0 0 0 0 0 0 0 0 0 0 0 0 0 0 0 0 0 0 0 0 0 0 0 0 0 0 0 0 0 0 0 -0.025059118298239817 18.169810879190734 0.8084318117803931 0.2862068169759034 2.8484759084852787 11.122635937355621 0 0 0 0 0 0 0 0 0 12.239914606185708 -18.326075780014836 56.628031938078074 -5.978783058861334 -4.4683705150272806 -7.7754198113599475 94.40380945743344 -46.78219718632218 25.72889440152995 29.15453515566992 17.56106818992407 36.20645038110368 0 0 0 0 0 0 0 0 0 0 0 0 0 0 0 0 0 0 0 0 0 0 0 0 0 0 0 0 0 0 0 0 0 0 0 0 0 0 0 0 0 0 0 0 0
1.3641589182569336 -0.10238359973512771 6.805557693650352 180 0 0 -0.5417241931510381 -5.1298885896844055 6.9450146922912115 1.0385010807026307 14.020788312833693 5.96726524017214 24.940571207938028 -1.5877403342463103 -6.341996789897524 0 0 0 0.01539148931666814 -16.101680085199263 -5.936385730060201 -2.1344018521993906 25.58211822359181 -8.26649884053037 -1.2380266487299274 -16.982813828827293 -8.20816226229065 0 0 0 -2.4642471940177497 -4.731612774732327 -6.33953905954005 -3.794110637611175 0.46824120002626707 1.499993495075353 0 0 0 4.621764299013094 4.0705632729324925 -64.87240144035935 1.7035705687978326 -0.9660362223088016 0.16575503766261213 -83.44180916564193 -44.291191557973136 -36.76384740785347 -12.328618365387424 7.841808962965733 -33.38441430760305 0 0 0 0 0 0 0 0 0 0 0 0 0 0 0 0 0 0 0 0 0 0 0 0 0 0 0 0 0 0 0 0 0 0 0 0 0 0 0 0 0 0 0 0 0 -0.025666756216502693 18.060209471200935 0.8029080439405324 0.28257046938209796 2.829943987659783 11.049230259183176 0 0 0 0 0 0 0 0 0 12.286060614597021 -18.384301201420318 56.56622215613591 -5.740376871424512 -4.441882407699435 -7.7031882827277345 94.53383030098348 -46.892702070345 25.52064194513016 29.1051230928316 17.578941620858153 35.991407746218 0 0 0 0 0 0 0 0 0 0 0 0 0 0 0 0 0 0 0 0 0 0 0 0 0 0 0 0 0 0 0 0 0 0 0 0 0 0 0 0 0 0 0 0 0
1.350148752230666 -0.10238359973512771 6.806286468131038 180 0 0 -0.5359268827675546 -5.155358437279745 6.863890314986306 1.0385010807026307 14.020788312833693 5.96726524017214 24.781440402916562 -1.6628687081877125 -6.273689406316253 0 0 0 0.023819191508070766 -16.03907147474862 -6.028721077852619 -2.1172359926118576 25.446305816478954 -8.227669608310219 -1.2396413338711965 -16.903986902625704 -8.149631042160475 0 0 0 -2.4552916783632153 -4.743850745861718 -6.312404116465602 -3.790602873087568 0.457053999296937 1.4358089508562375 0 0 0 4.554256857237252 4.000644710214193 -64.82112952881562 1.7035705687978326 -0.9660362223088016 0.16575503766261213 -83.654438825769 -44.45185606231554 -36.53667584604192 -12.22042712439196 7.887573957679672 -33.34598090781127 0 0 0 0 0 0 0 0 0 0 0 0 0 0 0 0 0 0 0 0 0 0 0 0 0 0 0 0 0 0 0 0 0 0 0 0 0 0 0 0 0 0 0 0 0 -0.02626290775820609 17.950608179153765 0.7973890773303792 0.27895793878716696 2.8114072343112877 10.975826637429565 0 0 0 0 0 0 0 0 0 12.332289367376015 -18.442477895062876 56.50434416653734 -5.501945810249809 -4.415694533776646 -7.630850623950375 94.66470735169695 -47.0028792572883 25.31159105464975 29.055633442055235 17.5966394728561 35.776329190426736 0 0 0 0 0 0 0 0 0 0 0 0 0 0 0 0 0 0 0 0 0 0 0 0 0 0 0 0 0 0 0 0 0 0 0 0 0 0 0 0 0 0 0 0 0
1.3361385862043984 -0.10238359973512771 6.807015242611724 180 0 0 -0.5300931140863159 -5.18082030502431 6.782760137838161 1.0385010807026307 14.020788312833693 5.96726524017214 24.622215112415244 -1.7378071139874596 -6.205170008083357 0 0 0 0.03213928937559835 -15.976450555327393 -6.121017721842915 -2.100191363973786 25.310482086124264 -8.188929397462111 -1.241171231461796 -16.82515902599004 -8.09112698208993 0 0 0 -2.4463417692537854 -4.756092789170685 -6.285270519372364 -3.787082340474507 0.44587076481532073 1.3716239283257126 0 0 0 4.486692512354432 3.9307864567293938 -64.76977778007911 1.7035705687978326 -0.9660362223088016 0.16575503766261213 -83.86854755050463 -44.61191315763624 -36.30804449802229 -12.112192111608808 7.933266435134778 -33.30745259368471 0 0 0 0 0 0 0 0 0 0 0 0 0 0 0 0 0 0 0 0 0 0 0 0 0 0 0 0 0 0 0 0 0 0 0 0 0 0 0 0 0 0 0 0 0 -0.026847599071181758 17.8410066021524 0.7918746296207942 0.27536920637785556 2.7928658604279235 10.902425763796005 0 0 0 0 0 0 0 0 0 12.378599548986147 -18.500609472716167 56.442394680719346 -5.263490079165694 -4.389807284046777 -7.558406137601783 94.79644481185801 -47.11272712601762 25.101737771959858 29.006071325808414 17.614159904483525 35.561213542463676 0 0 0 0 0 0 0 0 0 0 0 0 0 0 0 0 0 0 0 0 0 0 0 0 0 0 0 0 0 0 0 0 0 0 0 0 0 0 0 0 0 0 0 0 0
1.3221283307140403 -0.10238359973512771 6.80774392762832 180 0 0 -0.5242215503183623 -5.206278054881782 6.701609057230842 1.0385010807026307 14.020788312833693 5.96726524017214 24.462755615833505 -1.8126179076222717 -6.136381616807729 0 0 0 0.040354273301508606 -15.913797732179665 -6.213302779586576 -2.0832587329633547 25.174580272067733 -8.150256413889775 -1.2426170385321775 -16.746308652930985 -8.032634915238994 0 0 0 -2.4373972519454523 -4.768340190543315 -6.258137456990573 -3.783548613733147 0.4346905089328827 1.3074309738491592 0 0 0 4.419050551195189 3.8609665725965425 -64.71834128845587 1.7035705687978326 -0.9660362223088016 0.16575503766261213 -84.08443619555085 -44.771570732588366 -36.077637315904134 -12.003875803353132 7.978903642677014 -33.26882069536741 0 0 0 0 0 0 0 0 0 0 0 0 0 0 0 0 0 0 0 0 0 0 0 0 0 0 0 0 0 0 0 0 0 0 0 0 0 0 0 0 0 0 0 0 0 -0.02742075801966783 17.731372071251 0.7863633645291299 0.2718042494450392 2.7743172999610937 10.829017613740637 0 0 0 0 0 0 0 0 0 12.425000731100567 -18.558703153211216 56.38035843078564 -5.024628960409081 -4.364179093418544 -7.48573900161844 94.92914927512685 -47.222329523435896 24.89090905365164 28.956385642712693 17.63152436629826 35.34583958710821 0 0 0 0 0 0 0 0 0 0 0 0 0 0 0 0 0 0 0 0 0 0 0 0 0 0 0 0 0 0 0 0 0 0 0 0 0 0 0 0 0 0 0 0 0
